<svg xmlns="http://www.w3.org/2000/svg" viewBox="0 0 16 16" width="16" height="16">
  <path fill="currentColor" fill-rule="evenodd" clip-rule="evenodd" d="M8 0c-.5 1.5-1.8 3-3.2 3.8C3.5 3 2 1.8 1.2 2.6c-.8.8.4 2.3 1.2 3.6C1.6 7.6.1 8.9 0 9.5c0 .6 1.5.9 2.9.9-.4 1.4-1.6 2.9-.8 3.7.8.8 2.3-.4 3.6-1.2.8 1.3 2.1 2.8 2.7 2.8.6 0 .9-1.5.9-2.9 1.4.4 2.9 1.6 3.7.8.8-.8-.4-2.3-1.2-3.6 1.3-.8 2.8-2.1 2.8-2.7 0-.6-1.5-.9-2.9-.9.4-1.4 1.6-2.9.8-3.7-.8-.8-2.3.4-3.6 1.2-.8-1.3-2.1-2.8-2.7-2.8zM8 6a2 2 0 100 4 2 2 0 000-4z"/>
</svg>
